<svg width="16" height="37" viewBox="0 0 16 37" fill="none" xmlns="http://www.w3.org/2000/svg">
<path fill-rule="evenodd" clip-rule="evenodd" d="M0.335671 36.582C0.229268 36.4498 0.144848 36.2928 0.0872481 36.1199C0.0296481 35.947 -5.41275e-08 35.7617 -6.23086e-08 35.5745C-7.04897e-08 35.3874 0.0296481 35.2021 0.0872481 35.0292C0.144848 34.8563 0.229268 34.6993 0.335671 34.5671L13.2398 18.4996L0.335669 2.43213C0.229438 2.29983 0.145171 2.14278 0.0876792 1.96992C0.0301874 1.79707 0.000596663 1.6118 0.000596655 1.42471C0.000596646 1.23761 0.0301874 1.05235 0.0876792 0.879494C0.145171 0.706642 0.229438 0.549583 0.335669 0.417286C0.4419 0.284988 0.568015 0.180046 0.706812 0.108448C0.84561 0.0368499 0.994372 -4.34655e-08 1.14461 -5.00324e-08C1.29484 -5.65993e-08 1.4436 0.0368499 1.5824 0.108448C1.7212 0.180046 1.84731 0.284988 1.95354 0.417286L15.6643 17.4922C15.7707 17.6244 15.8551 17.7814 15.9127 17.9543C15.9703 18.1271 16 18.3125 16 18.4996C16 18.6868 15.9703 18.8721 15.9127 19.045C15.8551 19.2179 15.7707 19.3749 15.6643 19.507L1.95354 36.582C1.84741 36.7145 1.72133 36.8196 1.58252 36.8913C1.4437 36.9631 1.29489 37 1.14461 37C0.99432 37 0.84551 36.9631 0.706699 36.8913C0.567889 36.8196 0.441805 36.7145 0.335671 36.582Z" fill="#839BB1"/>
<path fill-rule="evenodd" clip-rule="evenodd" d="M0.335671 36.582C0.229268 36.4498 0.144848 36.2928 0.0872481 36.1199C0.0296481 35.947 -5.41275e-08 35.7617 -6.23086e-08 35.5745C-7.04897e-08 35.3874 0.0296481 35.2021 0.0872481 35.0292C0.144848 34.8563 0.229268 34.6993 0.335671 34.5671L13.2398 18.4996L0.335669 2.43213C0.229438 2.29983 0.145171 2.14278 0.0876792 1.96992C0.0301874 1.79707 0.000596663 1.6118 0.000596655 1.42471C0.000596646 1.23761 0.0301874 1.05235 0.0876792 0.879494C0.145171 0.706642 0.229438 0.549583 0.335669 0.417286C0.4419 0.284988 0.568015 0.180046 0.706812 0.108448C0.84561 0.0368499 0.994372 -4.34655e-08 1.14461 -5.00324e-08C1.29484 -5.65993e-08 1.4436 0.0368499 1.5824 0.108448C1.7212 0.180046 1.84731 0.284988 1.95354 0.417286L15.6643 17.4922C15.7707 17.6244 15.8551 17.7814 15.9127 17.9543C15.9703 18.1271 16 18.3125 16 18.4996C16 18.6868 15.9703 18.8721 15.9127 19.045C15.8551 19.2179 15.7707 19.3749 15.6643 19.507L1.95354 36.582C1.84741 36.7145 1.72133 36.8196 1.58252 36.8913C1.4437 36.9631 1.29489 37 1.14461 37C0.99432 37 0.84551 36.9631 0.706699 36.8913C0.567889 36.8196 0.441805 36.7145 0.335671 36.582Z" fill="#3FA9F5"/>
</svg>
