<svg width="22" height="17" viewBox="0 0 22 17" fill="none" xmlns="http://www.w3.org/2000/svg">
<path d="M21.4486 3.65403C21.1115 2.98762 20.6253 2.38372 20.0173 1.87614C19.4088 1.36705 18.6915 0.962479 17.9042 0.684435C17.0878 0.394975 16.2122 0.246814 15.3282 0.24855C14.088 0.24855 12.878 0.538424 11.8265 1.08596C11.5749 1.21694 11.336 1.36081 11.1096 1.51755C10.8832 1.36081 10.6442 1.21694 10.3926 1.08596C9.3411 0.538424 8.1311 0.24855 6.89091 0.24855C5.99788 0.24855 5.13251 0.394561 4.31495 0.684435C3.52505 0.963573 2.81314 1.3651 2.20185 1.87614C1.59307 2.38314 1.10676 2.98719 0.770477 3.65403C0.42081 4.34758 0.242203 5.08408 0.242203 5.84204C0.242203 6.55707 0.413263 7.30215 0.752868 8.06012C1.03713 8.69354 1.44466 9.35059 1.96538 10.0141C2.7905 11.0641 3.92503 12.1591 5.33376 13.2693C7.66823 15.1094 9.98006 16.3806 10.0782 16.4321L10.6744 16.7585C10.9385 16.9023 11.2781 16.9023 11.5422 16.7585L12.1384 16.4321C12.2365 16.3784 14.5459 15.1094 16.8828 13.2693C18.2916 12.1591 19.4261 11.0641 20.2512 10.0141C20.7719 9.35059 21.182 8.69354 21.4637 8.06012C21.8033 7.30215 21.9744 6.55707 21.9744 5.84204C21.9769 5.08408 21.7983 4.34758 21.4486 3.65403ZM11.1096 15.06C11.1096 15.06 2.15405 10.1622 2.15405 5.84204C2.15405 3.65403 4.2747 1.88043 6.89091 1.88043C8.72981 1.88043 10.3247 2.7565 11.1096 4.03624C11.8944 2.7565 13.4893 1.88043 15.3282 1.88043C17.9444 1.88043 20.0651 3.65403 20.0651 5.84204C20.0651 10.1622 11.1096 15.06 11.1096 15.06Z" fill="white"/>
<path d="M15.3282 1.88037C13.4893 1.88037 11.8945 2.75643 11.1096 4.03617C10.3247 2.75643 8.72984 1.88037 6.89094 1.88037C4.27473 1.88037 2.15408 3.65397 2.15408 5.84198C2.15408 10.1622 11.1096 15.06 11.1096 15.06C11.1096 15.06 20.0651 10.1622 20.0651 5.84198C20.0651 3.65397 17.9445 1.88037 15.3282 1.88037Z" fill="#FF1D25"/>
</svg>
