<svg width="22" height="17" viewBox="0 0 22 17" fill="none" xmlns="http://www.w3.org/2000/svg">
<path d="M21.2461 3.65403C20.9089 2.98762 20.4227 2.38372 19.8147 1.87614C19.2063 1.36705 18.4889 0.962479 17.7016 0.684435C16.8853 0.394975 16.0097 0.246814 15.1257 0.24855C13.8855 0.24855 12.6755 0.538424 11.624 1.08596C11.3724 1.21694 11.1334 1.36081 10.907 1.51755C10.6806 1.36081 10.4416 1.21694 10.1901 1.08596C9.13857 0.538424 7.92857 0.24855 6.68838 0.24855C5.79535 0.24855 4.92998 0.394561 4.11242 0.684435C3.32252 0.963573 2.61061 1.3651 1.99932 1.87614C1.39054 2.38314 0.904226 2.98719 0.567947 3.65403C0.21828 4.34758 0.0396729 5.08408 0.0396729 5.84204C0.0396729 6.55707 0.210733 7.30215 0.550338 8.06012C0.8346 8.69354 1.24213 9.35059 1.76285 10.0141C2.58797 11.0641 3.7225 12.1591 5.13123 13.2693C7.4657 15.1094 9.77753 16.3806 9.87564 16.4321L10.4718 16.7585C10.736 16.9023 11.0756 16.9023 11.3397 16.7585L11.9359 16.4321C12.034 16.3784 14.3433 15.1094 16.6803 13.2693C18.089 12.1591 19.2236 11.0641 20.0487 10.0141C20.5694 9.35059 20.9795 8.69354 21.2612 8.06012C21.6008 7.30215 21.7719 6.55707 21.7719 5.84204C21.7744 5.08408 21.5958 4.34758 21.2461 3.65403ZM10.907 15.06C10.907 15.06 1.95152 10.1622 1.95152 5.84204C1.95152 3.65403 4.07217 1.88043 6.68838 1.88043C8.52728 1.88043 10.1222 2.7565 10.907 4.03624C11.6919 2.7565 13.2868 1.88043 15.1257 1.88043C17.7419 1.88043 19.8625 3.65403 19.8625 5.84204C19.8625 10.1622 10.907 15.06 10.907 15.06Z" fill="white"/>
</svg>
