<svg width="68" height="60" viewBox="0 0 68 60" fill="none" xmlns="http://www.w3.org/2000/svg">
<path d="M10.5538 38.9024C11.7845 39.2769 13.0921 39.3218 14.3457 39.0327C15.5992 38.7436 16.755 38.1305 17.6974 37.2548L17.7267 37.2647C19.0725 35.7308 20.8436 34.6312 22.8154 34.1054C28.3383 32.6256 34.015 35.9034 35.4947 41.4259C36.9746 46.9488 33.6972 52.6254 28.1743 54.1052C27.0956 54.3943 26.0119 54.4965 24.9533 54.441C24.036 54.4623 23.1208 54.343 22.2396 54.0873L22.2253 54.1413L7.73811 50.2597C5.27062 50.1014 3.06781 48.403 2.39255 45.8829C1.54534 42.7211 3.4212 39.4699 6.5835 38.6225C7.95522 38.255 9.34341 38.4015 10.5451 38.9424L10.5538 38.9024Z" fill="white"/>
<path d="M39.5633 7.47651C40.7941 7.85101 42.1016 7.89594 43.3552 7.60682C44.6088 7.3177 45.7645 6.70464 46.707 5.82892L46.7363 5.83883C48.0821 4.30489 49.8532 3.20529 51.8249 2.67954C57.3478 1.19967 63.0245 4.47752 64.5042 9.99997C65.9841 15.5229 62.7068 21.1995 57.1838 22.6793C56.1052 22.9684 55.0214 23.0706 53.9628 23.0151C53.0455 23.0364 52.1303 22.9171 51.2491 22.6614L51.2348 22.7154L36.7476 18.8338C34.2801 18.6755 32.0773 16.9771 31.4021 14.457C30.5549 11.2952 32.4307 8.04395 35.593 7.19662C36.9647 6.82907 38.3529 6.97556 39.5547 7.51645L39.5633 7.47651Z" fill="white"/>
</svg>
