<svg width="16" height="20" viewBox="0 0 16 20" fill="none" xmlns="http://www.w3.org/2000/svg">
<path d="M15.0013 9.05106C14.5692 8.07432 13.9412 7.19765 13.1564 6.4759L12.5088 5.87905C12.4869 5.85934 12.4604 5.84535 12.4318 5.83831C12.4031 5.83128 12.3732 5.83141 12.3447 5.83869C12.3161 5.84597 12.2898 5.86019 12.268 5.88009C12.2461 5.89998 12.2295 5.92496 12.2195 5.95282L11.9302 6.78661C11.75 7.3097 11.4184 7.84395 10.9489 8.36927C10.9177 8.4028 10.8821 8.41174 10.8576 8.41398C10.8331 8.41621 10.7953 8.41174 10.7619 8.38045C10.7308 8.35362 10.7152 8.31339 10.7174 8.27315C10.7998 6.92744 10.3992 5.40961 9.52239 3.75766C8.79692 2.38513 7.78882 1.31438 6.52926 0.567762L5.61018 0.0245628C5.49001 -0.0469697 5.33646 0.0469166 5.34313 0.187746L5.39209 1.26073C5.42547 1.99394 5.34091 2.6422 5.14062 3.18093C4.89583 3.84037 4.54422 4.45287 4.09469 5.00277C3.78186 5.38494 3.42728 5.73061 3.03764 6.03329C2.09921 6.75793 1.33615 7.68643 0.805587 8.74929C0.276334 9.82141 0.000645717 11.0018 0 12.1985C0 13.2536 0.20696 14.2752 0.61643 15.2386C1.0118 16.1662 1.58237 17.0081 2.29659 17.7177C3.01761 18.433 3.85435 18.9963 4.78679 19.3875C5.7526 19.7943 6.77627 20 7.83333 20C8.89038 20 9.91406 19.7943 10.8799 19.3897C11.81 19.0008 12.6558 18.4337 13.3701 17.7199C14.0911 17.0046 14.6563 16.1685 15.0502 15.2409C15.4591 14.28 15.6688 13.2456 15.6667 12.2007C15.6667 11.1099 15.4441 10.0503 15.0013 9.05106V9.05106ZM12.3063 16.6357C11.1113 17.825 9.52462 18.4777 7.83333 18.4777C6.14204 18.4777 4.55535 17.825 3.36032 16.6357C2.16974 15.4487 1.51326 13.875 1.51326 12.2007C1.51326 11.2283 1.73134 10.2962 2.16084 9.42885C2.57921 8.58163 3.20232 7.82384 3.95895 7.2404C4.44149 6.86976 4.87917 6.44362 5.26302 5.9707C5.81936 5.2889 6.25554 4.52887 6.55819 3.71295C6.68233 3.37639 6.77254 3.02816 6.82746 2.6735C7.36377 3.16976 7.8133 3.76884 8.18939 4.47075C8.93267 5.8701 9.27537 7.11522 9.20861 8.17479C9.19266 8.42434 9.23324 8.67428 9.32728 8.90581C9.42133 9.13734 9.56641 9.34445 9.7516 9.51155C9.9121 9.65718 10.0998 9.76932 10.3038 9.84147C10.5078 9.91361 10.724 9.94432 10.94 9.93181C11.3784 9.90945 11.7811 9.71498 12.0749 9.38637C12.3709 9.0533 12.6268 8.71352 12.8404 8.36704C13.152 8.76717 13.4124 9.20307 13.6193 9.6725C13.9731 10.4728 14.1534 11.3245 14.1534 12.2007C14.1534 13.875 13.4969 15.451 12.3063 16.6357Z" fill="white"/>
</svg>
