<svg width="16" height="37" viewBox="0 0 16 37" fill="none" xmlns="http://www.w3.org/2000/svg">
<path fill-rule="evenodd" clip-rule="evenodd" d="M15.6643 0.418033C15.7707 0.55021 15.8552 0.707229 15.9128 0.880099C15.9704 1.05297 16 1.23829 16 1.42545C16 1.61262 15.9704 1.79794 15.9128 1.97081C15.8552 2.14368 15.7707 2.3007 15.6643 2.43287L2.7602 18.5004L15.6643 34.5679C15.7706 34.7002 15.8548 34.8572 15.9123 35.0301C15.9698 35.2029 15.9994 35.3882 15.9994 35.5753C15.9994 35.7624 15.9698 35.9477 15.9123 36.1205C15.8548 36.2934 15.7706 36.4504 15.6643 36.5827C15.5581 36.715 15.432 36.82 15.2932 36.8916C15.1544 36.9631 15.0056 37 14.8554 37C14.7052 37 14.5564 36.9631 14.4176 36.8916C14.2788 36.82 14.1527 36.715 14.0465 36.5827L0.335672 19.5078C0.229269 19.3756 0.144851 19.2186 0.0872508 19.0457C0.0296508 18.8729 2.04416e-06 18.6875 2.05235e-06 18.5004C2.06053e-06 18.3132 0.0296508 18.1279 0.0872509 17.955C0.144851 17.7821 0.229269 17.6251 0.335673 17.493L14.0465 0.418033C14.1526 0.285523 14.2787 0.18039 14.4175 0.108657C14.5563 0.036924 14.7051 -5.66016e-08 14.8554 -5.00324e-08C15.0057 -4.34631e-08 15.1545 0.0369241 15.2933 0.108657C15.4321 0.18039 15.5582 0.285523 15.6643 0.418033Z" fill="#839BB1"/>
<path fill-rule="evenodd" clip-rule="evenodd" d="M15.6643 0.418033C15.7707 0.55021 15.8552 0.707229 15.9128 0.880099C15.9704 1.05297 16 1.23829 16 1.42545C16 1.61262 15.9704 1.79794 15.9128 1.97081C15.8552 2.14368 15.7707 2.3007 15.6643 2.43287L2.7602 18.5004L15.6643 34.5679C15.7706 34.7002 15.8548 34.8572 15.9123 35.0301C15.9698 35.2029 15.9994 35.3882 15.9994 35.5753C15.9994 35.7624 15.9698 35.9477 15.9123 36.1205C15.8548 36.2934 15.7706 36.4504 15.6643 36.5827C15.5581 36.715 15.432 36.82 15.2932 36.8916C15.1544 36.9631 15.0056 37 14.8554 37C14.7052 37 14.5564 36.9631 14.4176 36.8916C14.2788 36.82 14.1527 36.715 14.0465 36.5827L0.335672 19.5078C0.229269 19.3756 0.144851 19.2186 0.0872508 19.0457C0.0296508 18.8729 2.04416e-06 18.6875 2.05235e-06 18.5004C2.06053e-06 18.3132 0.0296508 18.1279 0.0872509 17.955C0.144851 17.7821 0.229269 17.6251 0.335673 17.493L14.0465 0.418033C14.1526 0.285523 14.2787 0.18039 14.4175 0.108657C14.5563 0.036924 14.7051 -5.66016e-08 14.8554 -5.00324e-08C15.0057 -4.34631e-08 15.1545 0.0369241 15.2933 0.108657C15.4321 0.18039 15.5582 0.285523 15.6643 0.418033Z" fill="#3FA9F5"/>
</svg>
