<svg width="60" height="60" viewBox="0 0 60 60" fill="none" xmlns="http://www.w3.org/2000/svg">
<path d="M12 34C12 33.4696 11.7893 32.9609 11.4142 32.5858C11.0391 32.2107 10.5304 32 10 32C9.46957 32 8.96086 32.2107 8.58579 32.5858C8.21071 32.9609 8 33.4696 8 34H12ZM52 34C52 33.4696 51.7893 32.9609 51.4142 32.5858C51.0391 32.2107 50.5304 32 50 32C49.4696 32 45.3671 27.8889 44.992 28.264C44.6169 28.6391 48 33.4696 48 34H52ZM22 42V40H20V42H22ZM38 42H40V40H38V42ZM0 60H60V56H0V60ZM29.008 20.264L1.008 36.264L2.992 39.736L30.992 23.736L29.008 20.264ZM58.992 36.264L30.992 20.264L29.008 23.736L57.008 39.736L58.992 36.264ZM28 0V10H32V0H28ZM28 10V22H32V10H28ZM20 12H30V8H20V12ZM30 12H40V8H30V12ZM8 34V58H12V34H8ZM48 34V58H52V34H48ZM24 58V42H20V58H24ZM22 44H38V40H22V44ZM36 42V58H40V42H36Z" fill="white"/>
</svg>
